<?xml version="1.0" encoding="utf-8"?><!-- Uploaded to: SVG Repo, www.svgrepo.com, Generator: SVG Repo Mixer Tools -->
<svg width="800px" height="800px" viewBox="0 0 960 960" fill="none" xmlns="http://www.w3.org/2000/svg">
<path d="M599.256 326.893C638.207 324.995 644.199 388.816 601.453 383.223C565.997 382.224 561.503 327.892 599.256 326.893Z" fill="white"/>
<path d="M726.895 478.902C729.991 250.487 638.505 220.924 429.866 233.608C286.146 222.522 229.716 331.386 229.317 460.125C221.527 586.168 260.378 745.468 417.282 732.085C613.137 728.59 735.984 708.714 726.895 478.902ZM384.423 85.7931C608.743 64.9192 868.418 97.079 871.514 377.828C879.404 507.066 883.599 645.593 820.278 762.847C752.862 877.503 640.503 872.709 523.649 875.406C420.877 879.501 314.91 888.39 215.834 854.732C114.86 819.776 87.3942 743.571 89.5915 643.895C86.0959 558.103 82.6002 472.51 84.0984 386.617C89.0921 183.071 177.981 81.099 384.423 85.7931Z" fill="#000000"/>
<path d="M429.866 233.608C638.505 220.924 729.89 250.487 726.894 478.902C735.983 708.714 613.136 728.49 417.381 732.085C260.377 745.469 221.626 586.068 229.416 460.125C229.716 331.386 286.145 222.522 429.866 233.608ZM682.949 486.093C682.949 344.67 665.571 269.763 504.972 276.954C457.231 281.648 401.401 274.557 353.461 290.837C257.181 337.878 270.465 467.216 279.354 556.904C288.043 701.823 408.193 697.528 520.652 681.349C658.779 674.058 684.248 614.432 682.949 486.093Z" fill="white"/>
<path d="M495.188 393.309C393.515 388.116 362.155 555.606 473.715 560.101C578.584 557.604 594.664 423.172 495.188 393.309ZM473.915 354.857C649.495 342.972 638.709 602.448 473.116 600.65C316.212 595.856 330.894 368.84 473.915 354.857Z" fill="white"/>
<path d="M473.813 560.102C362.252 555.508 393.513 388.017 495.286 393.31C594.662 423.173 578.582 557.605 473.813 560.102Z" fill="#000000"/>
<path d="M504.973 276.955C665.572 269.664 683.05 344.67 682.95 486.093C684.149 614.433 658.781 674.058 520.653 681.349C408.194 697.529 288.044 701.823 279.355 556.905C270.466 467.117 257.282 337.878 353.462 290.837C401.402 274.558 457.233 281.649 504.973 276.955ZM473.213 600.65C638.706 602.448 649.592 342.972 474.012 354.857C330.89 368.84 316.209 595.856 473.213 600.65ZM601.452 383.222C644.199 388.815 638.206 325.094 599.255 326.892C561.502 327.891 565.997 382.223 601.452 383.222Z" fill="#000000"/>
</svg>